<svg width="32" height="32" viewBox="0 0 32 32" fill="none" xmlns="http://www.w3.org/2000/svg">
<path d="M14.6558 19.74C15.9961 18.8477 17.0136 17.5478 17.558 16.0326C18.1023 14.5173 18.1445 12.867 17.6785 11.3259C17.2124 9.78471 16.2627 8.43445 14.9699 7.47478C13.677 6.5151 12.1097 5.99695 10.4996 5.99695C8.88948 5.99695 7.32212 6.5151 6.02929 7.47478C4.73645 8.43445 3.78677 9.78471 3.32069 11.3259C2.8546 12.867 2.89685 14.5173 3.4412 16.0326C3.98554 17.5478 5.00307 18.8477 6.34332 19.74C3.91894 20.6335 1.84846 22.287 0.440824 24.4537C0.366843 24.5637 0.315457 24.6873 0.28965 24.8172C0.263844 24.9472 0.264133 25.0811 0.2905 25.2109C0.316868 25.3408 0.368788 25.4641 0.443242 25.5738C0.517696 25.6834 0.6132 25.7772 0.724202 25.8496C0.835204 25.922 0.959489 25.9716 1.08983 25.9955C1.22018 26.0195 1.35398 26.0173 1.48347 25.989C1.61295 25.9608 1.73554 25.9071 1.8441 25.8311C1.95265 25.7551 2.04502 25.6583 2.11582 25.5462C3.02381 24.1497 4.26627 23.0021 5.73037 22.2077C7.19447 21.4133 8.83383 20.9972 10.4996 20.9972C12.1653 20.9972 13.8047 21.4133 15.2688 22.2077C16.7329 23.0021 17.9753 24.1497 18.8833 25.5462C19.03 25.7642 19.2566 25.9157 19.514 25.968C19.7715 26.0203 20.0392 25.9691 20.2593 25.8256C20.4794 25.6821 20.6341 25.4577 20.6901 25.201C20.746 24.9443 20.6987 24.6758 20.5583 24.4537C19.1507 22.287 17.0802 20.6335 14.6558 19.74ZM4.99957 13.5C4.99957 12.4122 5.32214 11.3488 5.92649 10.4444C6.53084 9.53988 7.38982 8.83494 8.39481 8.41865C9.39981 8.00237 10.5057 7.89345 11.5726 8.10567C12.6395 8.31789 13.6195 8.84171 14.3887 9.6109C15.1579 10.3801 15.6817 11.3601 15.8939 12.427C16.1061 13.4939 15.9972 14.5998 15.5809 15.6048C15.1646 16.6097 14.4597 17.4687 13.5552 18.0731C12.6507 18.6774 11.5874 19 10.4996 19C9.04139 18.9983 7.6434 18.4183 6.61231 17.3873C5.58122 16.3562 5.00123 14.9582 4.99957 13.5ZM31.2671 25.8375C31.0449 25.9823 30.7744 26.033 30.5149 25.9784C30.2554 25.9238 30.0282 25.7683 29.8833 25.5462C28.9764 24.1489 27.7341 23.0008 26.2697 22.2067C24.8053 21.4126 23.1654 20.9978 21.4996 21C21.2344 21 20.98 20.8946 20.7925 20.7071C20.6049 20.5196 20.4996 20.2652 20.4996 20C20.4996 19.7348 20.6049 19.4804 20.7925 19.2929C20.98 19.1053 21.2344 19 21.4996 19C22.3095 18.9992 23.1093 18.8196 23.8418 18.4739C24.5743 18.1282 25.2214 17.625 25.7369 17.0002C26.2523 16.3754 26.6234 15.6445 26.8237 14.8597C27.0239 14.0749 27.0483 13.2555 26.8952 12.4602C26.7421 11.6648 26.4152 10.9131 25.9378 10.2587C25.4605 9.60437 24.8445 9.0635 24.134 8.67478C23.4234 8.28606 22.6357 8.05909 21.8272 8.01007C21.0187 7.96106 20.2094 8.09121 19.4571 8.39124C19.3344 8.44427 19.2024 8.47217 19.0687 8.4733C18.9351 8.47443 18.8026 8.44876 18.679 8.39782C18.5555 8.34687 18.4434 8.27168 18.3494 8.17668C18.2554 8.08168 18.1814 7.96881 18.1318 7.84473C18.0822 7.72065 18.0579 7.58788 18.0605 7.45426C18.063 7.32065 18.0923 7.1889 18.1466 7.06681C18.201 6.94471 18.2792 6.83474 18.3768 6.7434C18.4743 6.65205 18.5892 6.58119 18.7146 6.53499C20.4364 5.84831 22.3515 5.82359 24.0905 6.46562C25.8295 7.10766 27.2691 8.37094 28.1316 10.0118C28.9941 11.6526 29.2184 13.5547 28.7612 15.3511C28.304 17.1476 27.1978 18.7111 25.6558 19.74C28.0802 20.6335 30.1507 22.287 31.5583 24.4537C31.7032 24.6759 31.7539 24.9464 31.6992 25.2059C31.6446 25.4654 31.4892 25.6926 31.2671 25.8375Z" fill="#17478B"/>
</svg>
